<svg width="72" height="72" viewBox="0 0 72 72" fill="none" xmlns="http://www.w3.org/2000/svg">
<path d="M13.53 20.2V24.37H15.47V20.2H17.18V18.56H11.81V20.2H13.52H13.53Z" fill="white"/>
<path d="M21.25 22.28H23.03V24.37H24.97V18.56H23.03V20.61H21.25V18.56H19.31V24.37H21.25V22.28Z" fill="white"/>
<path d="M58.57 31.82H56.44V36.11H58.6C60.18 36.11 61.17 35.25 61.17 33.98V33.93C61.17 32.54 60.17 31.82 58.57 31.82Z" fill="white"/>
<path d="M65.32 22.57C61 14.44 49.66 9.35001 40.14 17.08C37.62 19.12 34.97 21.28 32.32 23.44V22.78H29.23V22.15H32.07V20.75H29.23V20.16H32.28V18.57H27.32V24.38H31.18C29.67 25.61 28.16 26.85 26.68 28.05H27.75V31.99H21.86C20.69 32.95 19.56 33.87 18.48 34.75H25.65V38.48H17.97V44.28H13.47V38.82C11.95 40.05 10.68 41.08 9.75 41.82C5.29 45.36 3.15 49.84 5.54 54.35C7.94 58.86 12.86 59.59 18.28 57.87C24.22 55.99 41.69 50.81 55.78 46.52C67.51 42.95 69.63 30.7 65.31 22.57H65.32ZM41.91 44.28H29.77V28.05H34.27V40.34H41.91V44.28ZM49.13 44.28H44.63V28.05H49.13V44.28ZM58.69 39.64H56.44V44.28H51.94V28.05H58.92C63 28.05 65.64 30.16 65.64 33.73V33.78C65.64 37.63 62.69 39.65 58.68 39.65L58.69 39.64Z" fill="white"/>
</svg>
